<svg xmlns="http://www.w3.org/2000/svg" version="1.1" xmlns:xlink="http://www.w3.org/1999/xlink" xmlns:svgjs="http://svgjs.dev/svgjs" viewBox="0 0 11.661381190418489 3.404458827137238"><g transform="matrix(1,0,0,1,3.299444713754847,1.131479413568619)"><g><path d=" M 0.666 1.1414999999999997 L 0.417 0.7139999999999997 L 0.252 0.7139999999999997 L 0.252 1.1414999999999997 L 0.1155 1.1414999999999997 L 0.1155 0.09599999999999964 L 0.453 0.09599999999999964 Q 0.5715 0.09599999999999964 0.65325 0.13649999999999962 Q 0.735 0.1769999999999997 0.7755 0.24599999999999966 Q 0.8160000000000001 0.3149999999999997 0.8160000000000001 0.40349999999999975 Q 0.8160000000000001 0.5114999999999997 0.75375 0.5939999999999998 Q 0.6915 0.6764999999999997 0.5670000000000001 0.7034999999999998 L 0.8295 1.1414999999999997 L 0.666 1.1414999999999997 M 0.252 0.6044999999999997 L 0.453 0.6044999999999997 Q 0.5640000000000001 0.6044999999999997 0.6195 0.5497499999999997 Q 0.675 0.4949999999999998 0.675 0.40349999999999975 Q 0.675 0.31049999999999967 0.62025 0.25949999999999973 Q 0.5655 0.20849999999999969 0.453 0.20849999999999969 L 0.252 0.20849999999999969 L 0.252 0.6044999999999997 M 1.0259567871093749 0.5062499999999998 Q 1.076956787109375 0.4109999999999997 1.1662067871093749 0.3584999999999997 Q 1.255456787109375 0.3059999999999997 1.3649567871093748 0.3059999999999997 Q 1.472956787109375 0.3059999999999997 1.5524567871093748 0.3524999999999997 Q 1.631956787109375 0.3989999999999997 1.670956787109375 0.4694999999999997 L 1.670956787109375 0.3194999999999997 L 1.8089567871093748 0.3194999999999997 L 1.8089567871093748 1.1414999999999997 L 1.670956787109375 1.1414999999999997 L 1.670956787109375 0.9884999999999997 Q 1.630456787109375 1.0604999999999998 1.550206787109375 1.1077499999999998 Q 1.4699567871093748 1.1549999999999998 1.363456787109375 1.1549999999999998 Q 1.253956787109375 1.1549999999999998 1.1654567871093748 1.1009999999999998 Q 1.076956787109375 1.0469999999999997 1.0259567871093749 0.9494999999999998 Q 0.974956787109375 0.8519999999999998 0.974956787109375 0.7274999999999997 Q 0.974956787109375 0.6014999999999997 1.0259567871093749 0.5062499999999998 M 1.6334567871093748 0.5669999999999997 Q 1.595956787109375 0.4979999999999998 1.532206787109375 0.4612499999999997 Q 1.468456787109375 0.42449999999999977 1.391956787109375 0.42449999999999977 Q 1.315456787109375 0.42449999999999977 1.252456787109375 0.4604999999999997 Q 1.1894567871093749 0.4964999999999997 1.151956787109375 0.5654999999999997 Q 1.114456787109375 0.6344999999999997 1.114456787109375 0.7274999999999997 Q 1.114456787109375 0.8219999999999997 1.151956787109375 0.8917499999999997 Q 1.1894567871093749 0.9614999999999998 1.252456787109375 0.9982499999999997 Q 1.315456787109375 1.0349999999999997 1.391956787109375 1.0349999999999997 Q 1.468456787109375 1.0349999999999997 1.532206787109375 0.9982499999999997 Q 1.595956787109375 0.9614999999999998 1.6334567871093748 0.8917499999999997 Q 1.670956787109375 0.8219999999999997 1.670956787109375 0.7289999999999996 Q 1.670956787109375 0.6359999999999997 1.6334567871093748 0.5669999999999997 M 2.038494873046875 0.5062499999999998 Q 2.089494873046875 0.4109999999999997 2.180244873046875 0.3584999999999997 Q 2.2709948730468748 0.3059999999999997 2.3879948730468747 0.3059999999999997 Q 2.539494873046875 0.3059999999999997 2.637744873046875 0.3794999999999997 Q 2.735994873046875 0.45299999999999974 2.767494873046875 0.5834999999999997 L 2.6204948730468747 0.5834999999999997 Q 2.5994948730468748 0.5084999999999997 2.538744873046875 0.46499999999999975 Q 2.477994873046875 0.42149999999999976 2.3879948730468747 0.42149999999999976 Q 2.2709948730468748 0.42149999999999976 2.1989948730468747 0.5017499999999997 Q 2.126994873046875 0.5819999999999997 2.126994873046875 0.7289999999999996 Q 2.126994873046875 0.8774999999999997 2.1989948730468747 0.9584999999999997 Q 2.2709948730468748 1.0394999999999996 2.3879948730468747 1.0394999999999996 Q 2.477994873046875 1.0394999999999996 2.537994873046875 0.9974999999999997 Q 2.5979948730468747 0.9554999999999998 2.6204948730468747 0.8774999999999997 L 2.767494873046875 0.8774999999999997 Q 2.734494873046875 1.0034999999999998 2.635494873046875 1.0792499999999998 Q 2.536494873046875 1.1549999999999998 2.3879948730468747 1.1549999999999998 Q 2.2709948730468748 1.1549999999999998 2.180244873046875 1.1024999999999998 Q 2.089494873046875 1.0499999999999998 2.038494873046875 0.9539999999999997 Q 1.9874948730468749 0.8579999999999997 1.9874948730468749 0.7289999999999996 Q 1.9874948730468749 0.6014999999999997 2.038494873046875 0.5062499999999998 M 3.6929868164062496 0.7814999999999998 L 3.03598681640625 0.7814999999999998 Q 3.04348681640625 0.9029999999999997 3.11923681640625 0.9712499999999997 Q 3.19498681640625 1.0394999999999996 3.30298681640625 1.0394999999999996 Q 3.3914868164062497 1.0394999999999996 3.4507368164062497 0.9982499999999997 Q 3.5099868164062498 0.9569999999999997 3.53398681640625 0.8879999999999997 L 3.68098681640625 0.8879999999999997 Q 3.6479868164062497 1.0064999999999997 3.54898681640625 1.0807499999999997 Q 3.4499868164062497 1.1549999999999998 3.30298681640625 1.1549999999999998 Q 3.18598681640625 1.1549999999999998 3.09373681640625 1.1024999999999998 Q 3.00148681640625 1.0499999999999998 2.94898681640625 0.9532499999999997 Q 2.8964868164062496 0.8564999999999997 2.8964868164062496 0.7289999999999996 Q 2.8964868164062496 0.6014999999999997 2.9474868164062498 0.5054999999999997 Q 2.99848681640625 0.40949999999999975 3.09073681640625 0.3577499999999997 Q 3.18298681640625 0.3059999999999997 3.30298681640625 0.3059999999999997 Q 3.41998681640625 0.3059999999999997 3.5099868164062498 0.35699999999999976 Q 3.5999868164062496 0.4079999999999997 3.6487368164062497 0.49724999999999975 Q 3.6974868164062498 0.5864999999999997 3.6974868164062498 0.6989999999999997 Q 3.6974868164062498 0.7379999999999998 3.6929868164062496 0.7814999999999998 M 3.5219868164062498 0.5362499999999997 Q 3.48748681640625 0.47999999999999976 3.4282368164062498 0.45074999999999976 Q 3.3689868164062498 0.42149999999999976 3.2969868164062497 0.42149999999999976 Q 3.1934868164062498 0.42149999999999976 3.1207368164062497 0.4874999999999997 Q 3.04798681640625 0.5534999999999998 3.0374868164062496 0.6704999999999997 L 3.5564868164062498 0.6704999999999997 Q 3.5564868164062498 0.5924999999999997 3.5219868164062498 0.5362499999999997 M 4.884772705078125 0.6187499999999997 Q 4.795522705078125 0.7049999999999997 4.612522705078125 0.7049999999999997 L 4.4115227050781245 0.7049999999999997 L 4.4115227050781245 1.1414999999999997 L 4.275022705078125 1.1414999999999997 L 4.275022705078125 0.09599999999999964 L 4.612522705078125 0.09599999999999964 Q 4.789522705078125 0.09599999999999964 4.8817727050781246 0.18149999999999977 Q 4.9740227050781245 0.2669999999999997 4.9740227050781245 0.4019999999999997 Q 4.9740227050781245 0.5324999999999998 4.884772705078125 0.6187499999999997 M 4.780522705078125 0.5429999999999997 Q 4.8345227050781245 0.4934999999999997 4.8345227050781245 0.4019999999999997 Q 4.8345227050781245 0.20849999999999969 4.612522705078125 0.20849999999999969 L 4.4115227050781245 0.20849999999999969 L 4.4115227050781245 0.5924999999999997 L 4.612522705078125 0.5924999999999997 Q 4.726522705078125 0.5924999999999997 4.780522705078125 0.5429999999999997 M 5.146491943359375 0.1589999999999997 Q 5.119491943359375 0.13199999999999967 5.119491943359375 0.09299999999999975 Q 5.119491943359375 0.053999999999999604 5.146491943359375 0.02699999999999969 Q 5.173491943359375 -2.220446049250313e-16 5.212491943359375 -2.220446049250313e-16 Q 5.249991943359374 -2.220446049250313e-16 5.276241943359374 0.02699999999999969 Q 5.3024919433593745 0.053999999999999604 5.3024919433593745 0.09299999999999975 Q 5.3024919433593745 0.13199999999999967 5.276241943359374 0.1589999999999997 Q 5.249991943359374 0.18599999999999972 5.212491943359375 0.18599999999999972 Q 5.173491943359375 0.18599999999999972 5.146491943359375 0.1589999999999997 M 5.278491943359374 0.3194999999999997 L 5.278491943359374 1.1414999999999997 L 5.141991943359375 1.1414999999999997 L 5.141991943359375 0.3194999999999997 L 5.278491943359374 0.3194999999999997 M 5.5094494628906245 0.5062499999999998 Q 5.560449462890625 0.4109999999999997 5.651199462890625 0.3584999999999997 Q 5.7419494628906245 0.3059999999999997 5.8589494628906245 0.3059999999999997 Q 6.010449462890625 0.3059999999999997 6.108699462890625 0.3794999999999997 Q 6.206949462890624 0.45299999999999974 6.238449462890625 0.5834999999999997 L 6.091449462890624 0.5834999999999997 Q 6.0704494628906245 0.5084999999999997 6.009699462890625 0.46499999999999975 Q 5.948949462890624 0.42149999999999976 5.8589494628906245 0.42149999999999976 Q 5.7419494628906245 0.42149999999999976 5.669949462890624 0.5017499999999997 Q 5.597949462890624 0.5819999999999997 5.597949462890624 0.7289999999999996 Q 5.597949462890624 0.8774999999999997 5.669949462890624 0.9584999999999997 Q 5.7419494628906245 1.0394999999999996 5.8589494628906245 1.0394999999999996 Q 5.948949462890624 1.0394999999999996 6.008949462890625 0.9974999999999997 Q 6.068949462890624 0.9554999999999998 6.091449462890624 0.8774999999999997 L 6.238449462890625 0.8774999999999997 Q 6.205449462890624 1.0034999999999998 6.106449462890625 1.0792499999999998 Q 6.007449462890625 1.1549999999999998 5.8589494628906245 1.1549999999999998 Q 5.7419494628906245 1.1549999999999998 5.651199462890625 1.1024999999999998 Q 5.560449462890625 1.0499999999999998 5.5094494628906245 0.9539999999999997 Q 5.458449462890624 0.8579999999999997 5.458449462890624 0.7289999999999996 Q 5.458449462890624 0.6014999999999997 5.5094494628906245 0.5062499999999998 M 6.87744140625 1.1414999999999997 L 6.554941406249999 0.7784999999999997 L 6.554941406249999 1.1414999999999997 L 6.4184414062499995 1.1414999999999997 L 6.4184414062499995 0.03149999999999964 L 6.554941406249999 0.03149999999999964 L 6.554941406249999 0.6839999999999997 L 6.87144140625 0.3194999999999997 L 7.06194140625 0.3194999999999997 L 6.674941406249999 0.7289999999999996 L 7.06344140625 1.1414999999999997 L 6.87744140625 1.1414999999999997 M 7.31096337890625 1.1227499999999997 Q 7.235963378906249 1.0904999999999998 7.1924633789062495 1.0327499999999998 Q 7.14896337890625 0.9749999999999998 7.1444633789062495 0.8999999999999997 L 7.2854633789062495 0.8999999999999997 Q 7.29146337890625 0.9614999999999998 7.343213378906249 1.0004999999999997 Q 7.394963378906249 1.0394999999999996 7.47896337890625 1.0394999999999996 Q 7.556963378906249 1.0394999999999996 7.60196337890625 1.0049999999999997 Q 7.64696337890625 0.9704999999999997 7.64696337890625 0.9179999999999997 Q 7.64696337890625 0.8639999999999997 7.59896337890625 0.8377499999999998 Q 7.55096337890625 0.8114999999999997 7.4504633789062495 0.7859999999999998 Q 7.35896337890625 0.7619999999999998 7.301213378906249 0.7372499999999997 Q 7.24346337890625 0.7124999999999997 7.20221337890625 0.6637499999999997 Q 7.160963378906249 0.6149999999999998 7.160963378906249 0.5354999999999998 Q 7.160963378906249 0.4724999999999997 7.19846337890625 0.4199999999999997 Q 7.235963378906249 0.3674999999999997 7.304963378906249 0.33674999999999977 Q 7.373963378906249 0.3059999999999997 7.462463378906249 0.3059999999999997 Q 7.59896337890625 0.3059999999999997 7.6829633789062495 0.37499999999999967 Q 7.766963378906249 0.44399999999999973 7.772963378906249 0.5639999999999997 L 7.6364633789062495 0.5639999999999997 Q 7.631963378906249 0.4994999999999997 7.584713378906249 0.4604999999999997 Q 7.537463378906249 0.42149999999999976 7.45796337890625 0.42149999999999976 Q 7.38446337890625 0.42149999999999976 7.34096337890625 0.45299999999999974 Q 7.297463378906249 0.4844999999999997 7.297463378906249 0.5354999999999998 Q 7.297463378906249 0.5759999999999997 7.323713378906249 0.6022499999999997 Q 7.349963378906249 0.6284999999999997 7.38971337890625 0.6442499999999998 Q 7.42946337890625 0.6599999999999997 7.49996337890625 0.6794999999999998 Q 7.5884633789062494 0.7034999999999998 7.64396337890625 0.7267499999999998 Q 7.699463378906249 0.7499999999999998 7.73921337890625 0.7964999999999998 Q 7.77896337890625 0.8429999999999997 7.78046337890625 0.9179999999999997 Q 7.78046337890625 0.9854999999999997 7.74296337890625 1.0394999999999996 Q 7.705463378906249 1.0934999999999997 7.6372133789062495 1.1242499999999997 Q 7.56896337890625 1.1549999999999998 7.48046337890625 1.1549999999999998 Q 7.38596337890625 1.1549999999999998 7.31096337890625 1.1227499999999997" fill="#102036" fill-rule="nonzero"></path></g><g></g><g clip-path="url(#SvgjsClipPath1001)"><g clip-path="url(#SvgjsClipPath1000baf25d09-7d58-4ee0-ac2f-3484fc23e86a)"><path d=" M -1.8458656793015915 0.10906494593964344 L -1.457918323875446 0.8315361005363777 L -0.8933434577673527 -0.39641423324872405 C -0.982852336863949 -0.4614530893971893 -1.0809065706120862 -0.5138315392943384 -1.1847326818871606 -0.5520680514747872 Z" fill="#102036" transform="matrix(1,0,0,1,0,0)" fill-rule="nonzero"></path></g><g clip-path="url(#SvgjsClipPath1000baf25d09-7d58-4ee0-ac2f-3484fc23e86a)"><path d=" M -1.3895889358745133 0.959093085472482 L -1.0313213339236764 1.6258982135510829 C -0.6423894930545235 1.417445810670304 -0.3997146680412462 1.0118893870007375 -0.3998680899845546 0.5706180899845528 C -0.3998527893381878 0.22961283943753497 -0.5457012256665368 -0.09511356718625252 -0.80061071690958 -0.32162125449151197 Z" fill="#eda0a0" transform="matrix(1,0,0,1,0,0)" fill-rule="nonzero"></path></g><g clip-path="url(#SvgjsClipPath1000baf25d09-7d58-4ee0-ac2f-3484fc23e86a)"><path d=" M -1.9029827159896295 0.0027454734903147315 L -1.3093876464834568 -0.5908495960158581 C -1.4032985996243075 -0.6144548779893556 -1.4997243759530412 -0.6265911493325219 -1.5965557501090009 -0.6269929402480116 C -1.7945302665440133 -0.6272668871285976 -1.9894601916264774 -0.5782624106136806 -2.163768816526008 -0.4843982135510846 Z" fill="#a5b2ba" transform="matrix(1,0,0,1,0,0)" fill-rule="nonzero"></path></g><g clip-path="url(#SvgjsClipPath1000baf25d09-7d58-4ee0-ac2f-3484fc23e86a)"><path d=" M -1.988856136044856 0.08809125348375835 L -2.2636246982184915 -0.42385151646145414 C -2.5958451075885893 -0.2019058808637622 -2.795215515349299 0.1713444282036426 -2.7949582404342386 0.5708819100154467 C -2.794564512044455 0.6677572695485969 -2.7824281993357456 0.7642276676492505 -2.7588148962020993 0.858181923656375 Z" fill="#a5b2ba" transform="matrix(1,0,0,1,0,0)" fill-rule="nonzero"></path></g><g clip-path="url(#SvgjsClipPath1000baf25d09-7d58-4ee0-ac2f-3484fc23e86a)"><path d=" M -1.5185969309805214 0.9629184759204115 L -1.9312114592950342 0.19441072593308617 L -2.719901441645569 0.9832326182990678 C -2.5814464007209432 1.3597879195677227 -2.2636908390743016 1.6420392365984005 -1.8734348725297658 1.7351197063402202 Z" fill="#3682ae" transform="matrix(1,0,0,1,0,0)" fill-rule="nonzero"></path></g><g clip-path="url(#SvgjsClipPath1000baf25d09-7d58-4ee0-ac2f-3484fc23e86a)"><path d=" M -1.4500037229486968 1.0906073708719612 L -1.756298778813882 1.7563572188269951 C -1.7035381107263794 1.7637058260722056 -1.6503519960314215 1.767583521261232 -1.59708339017078 1.7679653001862254 C -1.438589059299739 1.7680947224768375 -1.2816510175719211 1.7367071141312738 -1.135398336110424 1.675628289374155 Z" fill="#3682ae" transform="matrix(1,0,0,1,0,0)" fill-rule="nonzero"></path></g></g></g><defs><clipPath id="SvgjsClipPath1001"><path d=" M -2.7944306003724555 -0.6264653001862279 h 2.3944306003724556 v 2.3944306003724556 h -2.3944306003724556 Z"></path></clipPath><clipPath id="SvgjsClipPath1000baf25d09-7d58-4ee0-ac2f-3484fc23e86a"><path d=" M -2.7944306003724555 -0.6264653001862279 L -0.3999999999999999 -0.6264653001862279 L -0.3999999999999999 1.7679653001862277 L -2.7944306003724555 1.7679653001862277 Z"></path></clipPath></defs></svg>