<svg xmlns="http://www.w3.org/2000/svg" version="1.1" xmlns:xlink="http://www.w3.org/1999/xlink" xmlns:svgjs="http://svgjs.dev/svgjs" viewBox="0 0 6.8345079171495735 3.1570254952745733"><g transform="matrix(1,0,0,1,3.1757280478235144,1.0077627476372868)"><rect width="6.8345079171495735" height="6.8345079171495735" x="-3.1757280478235144" y="-2.846503958574787" fill="#ffffff"></rect><g><path d=" M 0.9375 1.1414999999999997 L 0.801 1.1414999999999997 L 0.252 0.3089999999999997 L 0.252 1.1414999999999997 L 0.1155 1.1414999999999997 L 0.1155 0.0944999999999998 L 0.252 0.0944999999999998 L 0.801 0.9254999999999998 L 0.801 0.0944999999999998 L 0.9375 0.0944999999999998 L 0.9375 1.1414999999999997 M 1.17300439453125 0.1589999999999997 Q 1.14600439453125 0.13199999999999967 1.14600439453125 0.09299999999999975 Q 1.14600439453125 0.053999999999999604 1.17300439453125 0.02699999999999969 Q 1.20000439453125 -2.220446049250313e-16 1.2390043945312499 -2.220446049250313e-16 Q 1.27650439453125 -2.220446049250313e-16 1.3027543945312499 0.02699999999999969 Q 1.32900439453125 0.053999999999999604 1.32900439453125 0.09299999999999975 Q 1.32900439453125 0.13199999999999967 1.3027543945312499 0.1589999999999997 Q 1.27650439453125 0.18599999999999972 1.2390043945312499 0.18599999999999972 Q 1.20000439453125 0.18599999999999972 1.17300439453125 0.1589999999999997 M 1.30500439453125 0.3194999999999997 L 1.30500439453125 1.1414999999999997 L 1.1685043945312499 1.1414999999999997 L 1.1685043945312499 0.3194999999999997 L 1.30500439453125 0.3194999999999997 M 2.2439619140625 0.3194999999999997 L 1.7489619140625 1.5284999999999997 L 1.6079619140624999 1.5284999999999997 L 1.7699619140624998 1.1324999999999998 L 1.4384619140625 0.3194999999999997 L 1.5899619140624999 0.3194999999999997 L 1.8479619140624999 0.9854999999999997 L 2.1029619140625 0.3194999999999997 L 2.2439619140625 0.3194999999999997 M 2.3789443359374998 0.5062499999999998 Q 2.4299443359375 0.4109999999999997 2.5191943359374998 0.3584999999999997 Q 2.6084443359375 0.3059999999999997 2.7179443359374997 0.3059999999999997 Q 2.8259443359375 0.3059999999999997 2.9054443359374997 0.3524999999999997 Q 2.9849443359374996 0.3989999999999997 3.0239443359375 0.4694999999999997 L 3.0239443359375 0.3194999999999997 L 3.1619443359374997 0.3194999999999997 L 3.1619443359374997 1.1414999999999997 L 3.0239443359375 1.1414999999999997 L 3.0239443359375 0.9884999999999997 Q 2.9834443359374996 1.0604999999999998 2.9031943359375 1.1077499999999998 Q 2.8229443359374997 1.1549999999999998 2.7164443359374997 1.1549999999999998 Q 2.6069443359375 1.1549999999999998 2.5184443359374997 1.1009999999999998 Q 2.4299443359375 1.0469999999999997 2.3789443359374998 0.9494999999999998 Q 2.3279443359374996 0.8519999999999998 2.3279443359374996 0.7274999999999997 Q 2.3279443359374996 0.6014999999999997 2.3789443359374998 0.5062499999999998 M 2.9864443359374997 0.5669999999999997 Q 2.9489443359375 0.4979999999999998 2.8851943359375 0.4612499999999997 Q 2.8214443359374997 0.42449999999999977 2.7449443359375 0.42449999999999977 Q 2.6684443359375 0.42449999999999977 2.6054443359375 0.4604999999999997 Q 2.5424443359374997 0.4964999999999997 2.5049443359374997 0.5654999999999997 Q 2.4674443359375 0.6344999999999997 2.4674443359375 0.7274999999999997 Q 2.4674443359375 0.8219999999999997 2.5049443359374997 0.8917499999999997 Q 2.5424443359374997 0.9614999999999998 2.6054443359375 0.9982499999999997 Q 2.6684443359375 1.0349999999999997 2.7449443359375 1.0349999999999997 Q 2.8214443359374997 1.0349999999999997 2.8851943359375 0.9982499999999997 Q 2.9489443359375 0.9614999999999998 2.9864443359374997 0.8917499999999997 Q 3.0239443359375 0.8219999999999997 3.0239443359375 0.7289999999999996 Q 3.0239443359375 0.6359999999999997 2.9864443359374997 0.5669999999999997" fill="#102036" fill-rule="nonzero"></path></g><g></g><g clip-path="url(#SvgjsClipPath1002)"><g clip-path="url(#SvgjsClipPath100067cc00fa-f0c4-48fc-ace3-cc054f29e660)"><path d=" M -1.8458656793015915 0.10906494593964344 L -1.457918323875446 0.8315361005363777 L -0.8933434577673527 -0.39641423324872405 C -0.982852336863949 -0.4614530893971893 -1.0809065706120862 -0.5138315392943384 -1.1847326818871606 -0.5520680514747872 Z" fill="#102036" transform="matrix(1,0,0,1,0,0)" fill-rule="nonzero"></path></g><g clip-path="url(#SvgjsClipPath100067cc00fa-f0c4-48fc-ace3-cc054f29e660)"><path d=" M -1.3895889358745133 0.959093085472482 L -1.0313213339236764 1.6258982135510829 C -0.6423894930545235 1.417445810670304 -0.3997146680412462 1.0118893870007375 -0.3998680899845546 0.5706180899845528 C -0.3998527893381878 0.22961283943753497 -0.5457012256665368 -0.09511356718625252 -0.80061071690958 -0.32162125449151197 Z" fill="#eda0a0" transform="matrix(1,0,0,1,0,0)" fill-rule="nonzero"></path></g><g clip-path="url(#SvgjsClipPath100067cc00fa-f0c4-48fc-ace3-cc054f29e660)"><path d=" M -1.9029827159896295 0.0027454734903147315 L -1.3093876464834568 -0.5908495960158581 C -1.4032985996243075 -0.6144548779893556 -1.4997243759530412 -0.6265911493325219 -1.5965557501090009 -0.6269929402480116 C -1.7945302665440133 -0.6272668871285976 -1.9894601916264774 -0.5782624106136806 -2.163768816526008 -0.4843982135510846 Z" fill="#a5b2ba" transform="matrix(1,0,0,1,0,0)" fill-rule="nonzero"></path></g><g clip-path="url(#SvgjsClipPath100067cc00fa-f0c4-48fc-ace3-cc054f29e660)"><path d=" M -1.988856136044856 0.08809125348375835 L -2.2636246982184915 -0.42385151646145414 C -2.5958451075885893 -0.2019058808637622 -2.795215515349299 0.1713444282036426 -2.7949582404342386 0.5708819100154467 C -2.794564512044455 0.6677572695485969 -2.7824281993357456 0.7642276676492505 -2.7588148962020993 0.858181923656375 Z" fill="#a5b2ba" transform="matrix(1,0,0,1,0,0)" fill-rule="nonzero"></path></g><g clip-path="url(#SvgjsClipPath100067cc00fa-f0c4-48fc-ace3-cc054f29e660)"><path d=" M -1.5185969309805214 0.9629184759204115 L -1.9312114592950342 0.19441072593308617 L -2.719901441645569 0.9832326182990678 C -2.5814464007209432 1.3597879195677227 -2.2636908390743016 1.6420392365984005 -1.8734348725297658 1.7351197063402202 Z" fill="#3682ae" transform="matrix(1,0,0,1,0,0)" fill-rule="nonzero"></path></g><g clip-path="url(#SvgjsClipPath100067cc00fa-f0c4-48fc-ace3-cc054f29e660)"><path d=" M -1.4500037229486968 1.0906073708719612 L -1.756298778813882 1.7563572188269951 C -1.7035381107263794 1.7637058260722056 -1.6503519960314215 1.767583521261232 -1.59708339017078 1.7679653001862254 C -1.438589059299739 1.7680947224768375 -1.2816510175719211 1.7367071141312738 -1.135398336110424 1.675628289374155 Z" fill="#3682ae" transform="matrix(1,0,0,1,0,0)" fill-rule="nonzero"></path></g></g></g><defs><clipPath id="SvgjsClipPath1002"><path d=" M -2.7944306003724555 -0.6264653001862279 h 2.3944306003724556 v 2.3944306003724556 h -2.3944306003724556 Z"></path></clipPath><clipPath id="SvgjsClipPath100067cc00fa-f0c4-48fc-ace3-cc054f29e660"><path d=" M -2.7944306003724555 -0.6264653001862279 L -0.3999999999999999 -0.6264653001862279 L -0.3999999999999999 1.7679653001862277 L -2.7944306003724555 1.7679653001862277 Z"></path></clipPath></defs></svg>